<svg width="250" xmlns="http://www.w3.org/2000/svg" height="250" id="screenshot-72c99f0e-8294-80cf-8005-d6adfc1cd9b5" viewBox="0 0 250 250" xmlns:xlink="http://www.w3.org/1999/xlink" fill="none" version="1.1"><g id="shape-72c99f0e-8294-80cf-8005-d6adfc1cd9b5"><defs><clipPath id="frame-clip-72c99f0e-8294-80cf-8005-d6adfc1cd9b5-render-1" class="frame-clip frame-clip-def"><rect rx="0" ry="0" x="0" y="0" width="250" height="250" transform="matrix(1.000000, 0.000000, 0.000000, 1.000000, 0.000000, 0.000000)"/></clipPath></defs><g><g><g clip-path="url(#frame-clip-72c99f0e-8294-80cf-8005-d6adfc1cd9b5-render-1)" fill="none"><g class="fills" id="fills-72c99f0e-8294-80cf-8005-d6adfc1cd9b5"><rect rx="0" ry="0" x="0" y="0" width="250" height="250" transform="matrix(1.000000, 0.000000, 0.000000, 1.000000, 0.000000, 0.000000)" class="frame-background"/></g><g class="frame-children"><g id="shape-72c99f0e-8294-80cf-8005-d6aedf6f4f82"><g class="fills" id="fills-72c99f0e-8294-80cf-8005-d6aedf6f4f82"><rect rx="0" ry="0" x="200" y="50" transform="matrix(1.000000, 0.000000, 0.000000, 1.000000, 0.000000, 0.000000)" width="30" height="150" style="fill: rgb(225, 122, 42); fill-opacity: 1;"/></g></g><g id="shape-72c99f0e-8294-80cf-8005-d6aedf6f4f81"><g class="fills" id="fills-72c99f0e-8294-80cf-8005-d6aedf6f4f81"><rect rx="0" ry="0" x="20" y="50" transform="matrix(1.000000, 0.000000, 0.000000, 1.000000, 0.000000, 0.000000)" width="30" height="150" style="fill: rgb(225, 122, 42); fill-opacity: 1;"/></g></g><g id="shape-72c99f0e-8294-80cf-8005-d6aedf6f4f7e" width="160" height="160" rx="0" ry="0" style="fill: rgb(0, 0, 0);"><g id="shape-72c99f0e-8294-80cf-8005-d6aedf6f4f7f" style="display: none;"><g class="fills" id="fills-72c99f0e-8294-80cf-8005-d6aedf6f4f7f"><rect width="149.99999999999994" height="150" x="50" transform="matrix(1.000000, 0.000000, 0.000000, 1.000000, 0.000000, 0.000000)" style="fill: rgb(43, 146, 224); fill-opacity: 1;" ry="0" fill="none" rx="0" y="50"/></g></g><g id="shape-72c99f0e-8294-80cf-8005-d6aedf6f4f80"><g class="fills" id="fills-72c99f0e-8294-80cf-8005-d6aedf6f4f80"><path d="M125.000,50.000L189.952,87.500L189.952,162.500L125.000,200.000L60.048,162.500L60.048,87.500Z" style="fill: rgb(43, 146, 224); fill-opacity: 1;"/></g></g></g><g id="shape-72c99f0e-8294-80cf-8005-d6aedf6f4f7d"><g class="fills" id="fills-72c99f0e-8294-80cf-8005-d6aedf6f4f7d"><ellipse cx="125" cy="125" rx="30" ry="30" transform="matrix(1.000000, 0.000000, 0.000000, 1.000000, 0.000000, 0.000000)" style="fill: rgb(67, 84, 97); fill-opacity: 1;"/></g></g><g id="shape-72c99f0e-8294-80cf-8005-d6aedf6f4f7c"><g class="fills" id="fills-72c99f0e-8294-80cf-8005-d6aedf6f4f7c"><ellipse cx="125" cy="125" rx="15" ry="15" transform="matrix(1.000000, 0.000000, 0.000000, 1.000000, 0.000000, 0.000000)" style="fill: rgb(49, 222, 185); fill-opacity: 1;"/></g></g></g></g></g></g></g></svg>